<svg xmlns="http://www.w3.org/2000/svg" viewBox="0 0 175.216 175.552">
  <defs>
    <linearGradient id="b" x1="85.915" x2="86.535" y1="32.567" y2="137.092" gradientUnits="userSpaceOnUse">
      <stop offset="0" stop-color="#57d163"/>
      <stop offset="1" stop-color="#23b33a"/>
    </linearGradient>
    <filter id="a" width="1.115" height="1.114" x="-.057" y="-.057" color-interpolation-filters="sRGB">
      <feGaussianBlur stdDeviation="3.531"/>
    </filter>
  </defs>
  <path fill="#b3b3b3" d="m54.532 138.45 2.235 1.324c9.387 5.571 20.15 8.518 31.126 8.523h.023c33.707 0 61.139-27.426 61.153-61.135.006-16.335-6.349-31.696-17.895-43.251A60.75 60.75 0 0 0 87.94 25.983c-33.733 0-61.166 27.423-61.178 61.13a61.16 61.16 0 0 0 8.413 30.834l1.463 2.325-6.214 22.558zm-40.106 23.635 7.298-26.605a72.05 72.05 0 0 1-6.89-30.49c.018-39.662 32.278-71.914 71.947-71.914 19.239.01 37.314 7.516 50.893 21.125 13.578 13.609 21.054 31.699 21.046 50.938-.018 39.662-32.279 71.919-71.951 71.919h-.032c-12.313-.005-24.412-3.094-35.159-8.954zm0 0" filter="url(#a)"/>
  <path fill="#fff" d="m12.966 161.238 7.439-27.158a73.42 73.42 0 0 1-7.023-31.105c.017-40.41 32.926-73.31 73.344-73.31 19.613.01 38.037 7.65 51.947 21.5 13.91 13.85 21.583 32.28 21.574 51.896-.018 40.41-32.93 73.314-73.348 73.314h-.033c-12.56-.005-24.893-3.157-35.844-9.134zm40.255-23.27 2.27 1.35c9.56 5.673 20.528 8.678 31.686 8.683h.026c34.357 0 62.326-27.962 62.342-62.325.007-16.65-6.47-32.314-18.233-44.091-11.763-11.777-27.42-18.265-44.067-18.274-34.386 0-62.358 27.96-62.375 62.321a62.33 62.33 0 0 0 8.575 31.42l1.53 2.435-6.516 23.692z"/>
  <path fill="url(#b)" d="M87.184 25.227c-33.733 0-61.166 27.423-61.178 61.13a61.16 61.16 0 0 0 8.413 30.834l1.463 2.325-6.214 22.558 23.128-6.07 2.235 1.324c9.387 5.571 20.15 8.518 31.126 8.523h.023c33.707 0 61.14-27.426 61.153-61.135a60.75 60.75 0 0 0-17.895-43.251 60.75 60.75 0 0 0-43.234-17.928z"/>
  <path fill="url(#linearGradient1780)" d="M87.184 25.227c-33.733 0-61.166 27.423-61.178 61.13a61.16 61.16 0 0 0 8.413 30.834l1.463 2.325-6.214 22.558 23.128-6.07 2.235 1.324c9.387 5.571 20.15 8.518 31.126 8.523h.023c33.707 0 61.14-27.426 61.153-61.135a60.75 60.75 0 0 0-17.895-43.251 60.75 60.75 0 0 0-43.234-17.928z"/>
  <path fill="#fff" fill-rule="evenodd" d="M68.772 55.603c-1.378-3.061-2.828-3.123-4.137-3.176l-3.524-.043c-1.226 0-3.218.46-4.902 2.3s-6.435 6.287-6.435 15.332 6.588 17.785 7.506 19.013 12.718 20.381 31.405 27.75c15.529 6.124 18.689 4.906 22.061 4.6s10.877-4.447 12.408-8.74 1.532-7.971 1.073-8.74-1.685-1.226-3.525-2.146-10.877-5.367-12.562-5.981-2.91-.919-4.137.921-4.746 5.979-5.819 7.206-2.144 1.381-3.984.462-7.76-2.861-14.784-9.124c-5.465-4.873-9.154-10.891-10.228-12.73s-.114-2.835.808-3.751c.825-.824 1.838-2.147 2.759-3.22s1.224-1.84 1.836-3.065.307-2.301-.153-3.22-4.032-10.011-5.666-13.647"/>
</svg>